<?xml version="1.0" encoding="UTF-8" standalone="no"?>
<!-- Created with Inkscape (http://www.inkscape.org/) -->

<svg
   width="31.999998"
   height="31.999998"
   viewBox="0 0 8.466666 8.4666661"
   version="1.1"
   id="svg1429"
   xml:space="preserve"
   xmlns="http://www.w3.org/2000/svg"
   xmlns:svg="http://www.w3.org/2000/svg"><defs
     id="defs1426" /><path
     id="path2421"
     style="fill:#1976d2;stroke-width:0.382317"
     d="m 4.2400513,1.4035319 c -1.8539198,0.024144 -3.34966653,1.5768334 -3.34966637,3.4886759 0,1.9268964 1.51894147,3.4891929 3.39307457,3.4891928 1.8852322,0 3.3935913,-1.5625146 3.3935913,-3.4891928 0,-0.8218425 -0.2788231,-1.5775452 -0.7425904,-2.1745442 L 7.4698283,2.1667928 C 7.3001574,1.9690854 7.1303715,1.791144 6.9380778,1.6205729 L 6.40271,2.1786784 C 5.8182881,1.6902248 5.082798,1.4035319 4.2834595,1.4035319 c -0.014642,0 -0.02881,-1.901e-4 -0.043408,0 z m 0.043408,0.7751465 c 1.457659,0 2.6396322,1.2148322 2.6396321,2.7135294 1e-7,1.4986972 -1.1819732,2.7135295 -2.6396321,2.7135295 C 2.8258004,7.6057374 1.644344,6.390905 1.6443441,4.8922078 1.644344,3.3935105 2.8258004,2.1786783 4.2834593,2.1786784 Z" /><path
     id="path2845"
     style="fill:#1976d2;stroke-width:0.382317"
     d="M 3.1522624,0.24029541 V 1.0154419 H 5.4146566 V 0.24029541 Z" /><path
     d="M 4.3343613,3.8898391 Q 4.1367791,4.1917643 3.9138659,4.5469705 3.6909526,4.9021768 3.5389663,5.2751433 h 0.795395 z M 5.074028,2.8123802 V 5.2751433 H 5.4489276 V 5.9973959 H 5.074028 V 6.915012 H 4.3343613 V 5.9973959 H 2.8195644 V 5.3521047 Q 2.9310211,5.0916201 3.098206,4.7660144 3.2653909,4.4344885 3.4680393,4.0911225 3.675754,3.7418365 3.9037335,3.4103106 4.1317129,3.0787849 4.3596924,2.8123802 Z"
     style="fill:#1976d2;stroke-width:17.2018"
     id="path1685" /></svg>
