<?xml version="1.0" standalone="no"?>
<!DOCTYPE svg PUBLIC "-//W3C//DTD SVG 20010904//EN"
 "http://www.w3.org/TR/2001/REC-SVG-20010904/DTD/svg10.dtd">
<svg version="1.0" xmlns="http://www.w3.org/2000/svg"
 width="1024.000000pt" height="1024.000000pt" viewBox="0 0 1024.000000 1024.000000"
 preserveAspectRatio="xMidYMid meet">
<metadata>
Created by potrace 1.14, written by Peter Selinger 2001-2017
</metadata>
<g transform="translate(0.000000,1024.000000) scale(0.100000,-0.100000)"
fill="#000000" stroke="none">
<path d="M3812 9480 l0 -470 1369 0 1369 0 0 470 0 470 -1369 0 -1368 0 -1
-470z"/>
<path d="M5047 8544 c-1 -1 -58 -5 -126 -9 -68 -3 -131 -8 -140 -10 -9 -1 -43
-6 -76 -9 -99 -12 -163 -21 -270 -42 -906 -170 -1749 -665 -2349 -1378 -360
-428 -617 -887 -792 -1413 -49 -148 -121 -422 -140 -533 -4 -25 -8 -47 -9 -50
-2 -10 -17 -95 -21 -125 -2 -16 -6 -41 -9 -55 -2 -14 -7 -56 -11 -95 -3 -38
-8 -78 -10 -87 -7 -41 -17 -275 -17 -418 -1 -135 3 -207 18 -409 3 -47 14
-139 20 -181 2 -14 9 -56 15 -95 114 -750 451 -1484 959 -2090 166 -199 513
-522 706 -659 61 -43 213 -146 240 -163 169 -104 383 -218 515 -275 19 -9 56
-25 81 -36 131 -59 493 -176 638 -207 133 -29 256 -51 391 -70 231 -34 781
-40 961 -10 13 2 47 6 74 10 51 6 86 11 140 20 17 3 46 8 65 11 19 3 67 12
105 21 39 8 81 17 94 19 14 3 59 14 100 25 694 186 1312 538 1816 1036 117
115 165 165 259 273 60 69 212 269 276 365 290 434 486 877 616 1394 9 38 45
209 50 240 3 18 7 42 9 51 2 10 7 40 11 67 3 26 8 55 9 63 2 8 6 47 10 85 4
39 9 78 11 87 24 133 23 661 -2 878 -8 68 -24 192 -29 220 -2 14 -9 54 -15 90
-14 82 -48 245 -61 286 -5 17 -11 40 -13 50 -25 129 -158 503 -249 698 -122
265 -301 569 -453 767 -24 31 -44 61 -46 67 -3 8 228 251 561 590 84 86 84 75
-4 176 -139 159 -356 379 -532 540 l-32 29 -48 -51 c-26 -27 -127 -132 -223
-233 -96 -100 -220 -230 -276 -287 l-101 -106 -54 45 c-29 24 -59 49 -66 54
-7 6 -18 15 -25 20 -33 27 -221 157 -293 203 -355 225 -780 406 -1180 502
-153 36 -169 40 -200 45 -16 3 -41 7 -54 10 -12 2 -42 7 -65 9 -22 3 -51 8
-63 10 -12 3 -53 8 -90 11 -37 4 -70 9 -74 11 -11 6 -525 24 -532 18z m335
-948 c65 -4 125 -8 135 -10 18 -3 61 -9 153 -21 25 -3 52 -8 60 -10 8 -2 31
-7 50 -10 71 -11 278 -65 365 -95 50 -17 97 -33 105 -35 73 -18 395 -172 528
-252 121 -73 313 -206 358 -248 6 -5 30 -26 54 -45 223 -180 455 -441 637
-715 186 -279 353 -658 437 -985 24 -92 46 -196 61 -280 17 -99 33 -239 41
-355 6 -83 6 -383 0 -426 -3 -18 -8 -68 -11 -109 -3 -41 -10 -102 -15 -135 -5
-33 -11 -78 -14 -100 -5 -35 -15 -88 -30 -160 -31 -148 -107 -389 -170 -544
-327 -796 -933 -1422 -1706 -1761 -238 -105 -547 -192 -795 -226 -27 -3 -59
-8 -69 -10 -92 -17 -468 -24 -627 -11 -608 49 -1203 283 -1686 665 -173 136
-364 323 -493 482 -25 30 -48 57 -51 60 -20 18 -188 264 -242 354 -79 134
-137 248 -200 396 -112 265 -193 556 -232 835 -3 22 -8 51 -10 65 -26 137 -26
694 0 828 1 9 6 40 9 67 27 201 128 589 186 720 5 11 26 61 46 110 68 162 212
431 280 522 13 17 24 34 24 37 0 3 6 14 14 23 8 10 41 54 74 98 452 616 1131
1056 1883 1221 13 3 33 7 44 8 11 2 47 8 80 14 33 6 82 14 110 18 27 3 61 8
75 10 14 1 72 6 130 9 58 4 106 8 107 8 4 4 197 -1 305 -7z"/>
<path d="M5228 6788 c-247 -293 -491 -633 -813 -1133 -63 -98 -225 -366 -225
-372 0 -4 -6 -14 -14 -22 -14 -17 -209 -361 -297 -526 -176 -329 -320 -623
-439 -894 l-32 -74 -2 -388 c-1 -339 1 -389 14 -390 8 -1 420 -2 915 -3 l900
-1 5 -555 5 -555 445 0 445 0 2 530 c1 292 2 541 2 555 l1 25 225 0 225 -1 1
61 c1 84 1 754 0 788 l-1 27 -227 0 -228 0 1 1490 1 1490 -432 0 -433 0 -44
-52z m12 -2098 l0 -830 -479 0 -480 0 40 93 c57 133 65 148 137 292 56 113
133 257 162 305 5 8 23 38 39 65 16 28 56 92 88 143 112 177 245 388 291 459
164 254 196 303 199 303 2 0 3 -373 3 -830z"/>
</g>
</svg>
